<svg xmlns="http://www.w3.org/2000/svg" xmlns:xlink="http://www.w3.org/1999/xlink" width="40" height="40" viewBox="0 0 40 40">
    <defs>
        <path id="a" d="M38.333 18.5V20A18.28 18.28 0 0 1 20 38.333 18.28 18.28 0 0 1 1.667 20 18.28 18.28 0 0 1 20 1.667c2.5 0 5.167.5 7.5 1.666.833.334 1.167 1.334.833 2.167-.333.833-1.333 1.167-2.166.833C24.167 5.5 22.167 5 20 5 11.667 5 5 11.667 5 20s6.667 15 15 15 15-6.667 15-15v-1.5c0-1 .667-1.667 1.667-1.667s1.666.667 1.666 1.667zM39.5 3.833c-.667-.666-1.667-.666-2.333 0L20 21l-3.833-3.833c-.667-.667-1.667-.667-2.334 0-.666.666-.666 1.666 0 2.333l5 5c.334.333.834.5 1.167.5.333 0 .833-.167 1.167-.5L39.5 6.167c.667-.667.667-1.667 0-2.334z"/>
    </defs>
    <use fill="#00BC2B" fill-rule="evenodd" xlink:href="#a"/>
</svg>
