<svg xmlns="http://www.w3.org/2000/svg" xmlns:xlink="http://www.w3.org/1999/xlink" width="16" height="16" viewBox="0 0 16 16">
    <defs>
        <path id="a" d="M8 .667A7.312 7.312 0 0 0 .667 8 7.312 7.312 0 0 0 8 15.333 7.312 7.312 0 0 0 15.333 8 7.312 7.312 0 0 0 8 .667zm0 10A.667.667 0 1 1 8 12a.667.667 0 0 1 0-1.333zM8.333 4a2.333 2.333 0 0 1 2.334 2.333v.613a2.13 2.13 0 0 1-1.456 2.02l-.368.122a.258.258 0 0 0-.176.245.667.667 0 0 1-1.334 0c0-.685.439-1.293 1.089-1.51l.367-.122a.796.796 0 0 0 .544-.755v-.613a1 1 0 0 0-1-1H8c-.736 0-1.333.597-1.333 1.334a.667.667 0 0 1-1.334 0A2.667 2.667 0 0 1 8 4h.333z"/>
    </defs>
    <use fill="#FFF" fill-rule="evenodd" xlink:href="#a"/>
</svg>
