<svg xmlns="http://www.w3.org/2000/svg" width="80" height="80" viewBox="0 0 80 80">
    <path fill="#FEAA00" fill-rule="evenodd" d="M19.612 18.29l.163.056 18.242 6.904a2.656 2.656 0 0 1 1.668 3.05l-.041.168-4.213 15.057a13.888 13.888 0 0 1-7.092 8.633 13.87 13.87 0 0 1-9.493 1.105l-.455-.117-5.568 14.713c.181.069.342.181.469.326l.088.115 4.972 7.37c.37.548.343 1.265-.068 1.784a1.507 1.507 0 0 1-1.587.52l-.133-.044L.977 72.032a1.507 1.507 0 0 1-.975-1.497A1.506 1.506 0 0 1 1 69.195l.134-.042 8.606-2.231c.187-.049.383-.05.57-.005l.138.043 5.57-14.717-.117-.055c-.049-.024-.096-.05-.145-.075-.163-.084-.325-.17-.484-.26l-.117-.068-.253-.15-.25-.154-.081-.053c-.18-.116-.357-.236-.53-.36l-.037-.026a13.806 13.806 0 0 1-2.105-1.865l-.071-.08a13.98 13.98 0 0 1-.362-.414l-.14-.173a14.346 14.346 0 0 1-.64-.856c-.065-.093-.129-.185-.19-.279-.053-.08-.103-.162-.153-.243a13.8 13.8 0 0 1-.693-1.245c-.034-.068-.069-.135-.1-.204-.054-.112-.103-.226-.153-.34a13.63 13.63 0 0 1-.125-.29c-.018-.045-.039-.088-.057-.133a13.77 13.77 0 0 1-.552-1.701l-.014-.054a13.742 13.742 0 0 1-.037-6.613c.005-.023.014-.043.021-.065.191-.78.45-1.546.778-2.289l.204-.443 6.812-14.074a2.656 2.656 0 0 1 3.186-1.39zm40.613.056a2.657 2.657 0 0 1 3.35 1.335l6.81 14.074a13.8 13.8 0 0 1 .983 2.732c.007.022.016.042.021.064a13.74 13.74 0 0 1-.036 6.61l-.015.06a13.665 13.665 0 0 1-.202.71l-.051.158c-.091.28-.19.557-.3.831l-.057.135c-.04.095-.08.19-.122.284-.05.116-.101.232-.155.346-.03.065-.063.128-.095.192-.212.434-.446.855-.701 1.261-.05.079-.098.158-.148.235-.063.096-.128.19-.193.284a13.904 13.904 0 0 1-.637.852l-.143.175c-.117.14-.237.276-.359.411l-.073.083a13.814 13.814 0 0 1-2.104 1.864l-.038.027c-.173.123-.35.243-.529.359l-.083.054c-.164.104-.331.205-.5.303l-.119.068c-.159.09-.32.176-.484.26l-.145.075c-.038.02-.078.036-.116.055l5.568 14.717c.227-.086.475-.099.71-.038l8.605 2.231c.64.166 1.095.722 1.13 1.382a1.506 1.506 0 0 1-.974 1.496L63.436 77.93a1.506 1.506 0 0 1-1.72-.476 1.507 1.507 0 0 1-.069-1.785l4.973-7.37c.135-.2.33-.354.557-.44l-5.568-14.714a13.875 13.875 0 0 1-8.91-.517 13.734 13.734 0 0 1-1.038-.47 13.892 13.892 0 0 1-7.092-8.633l-4.213-15.058a2.657 2.657 0 0 1 1.627-3.218zM9.966 69.286l-5.708 1.48 10.684 4.043-3.298-4.888-1.678-.635zm60.068 0l-1.678.635-3.298 4.888 10.684-4.043-5.708-1.48zM18.828 20.518a.323.323 0 0 0-.251.12l-.04.064-6.812 14.075-.164.358-.151.363 3.825-.35a1.172 1.172 0 0 1 .34 2.318l-.126.018-4.714.43a11.537 11.537 0 0 0 .44 5.542l.026.076c.05.146.105.292.16.436.02.047.037.093.056.14.053.131.11.261.168.39.02.045.038.09.059.134.074.16.152.319.234.475.031.06.065.12.098.18.055.1.11.201.168.3.038.066.078.13.117.195l.09.144.091.143.113.17c.078.116.159.23.24.342l.071.098c.231.309.477.606.737.89l.014.014c.128.14.26.275.394.408l.019.018c.45.44.934.844 1.45 1.207l.393.264.238.148.237.14.084.047.202.112.205.107.122.063c.13.065.263.126.396.187l.129.059a11.538 11.538 0 0 0 9.795-.278 11.54 11.54 0 0 0 5.794-6.841l.097-.33 2.018-7.212-13.833 1.263a1.172 1.172 0 0 1-.34-2.317l.127-.019 14.722-1.344 1.52-5.43a.324.324 0 0 0-.136-.36l-.064-.032-18.241-6.903a.328.328 0 0 0-.117-.022zm42.636.185a.324.324 0 0 0-.41-.163l-18.24 6.903a.324.324 0 0 0-.2.392l1.52 5.43 4.487.41a1.173 1.173 0 1 1-.213 2.336l-3.598-.329 2.018 7.212a11.538 11.538 0 0 0 5.891 7.17 11.538 11.538 0 0 0 9.795.279l.13-.06c.133-.06.265-.121.396-.186l.121-.062c.138-.07.274-.144.408-.22l.083-.047a11.568 11.568 0 0 0 2.318-1.759l.019-.018c.135-.132.266-.268.394-.407l.014-.015c.26-.284.505-.58.736-.89l.07-.097a11.584 11.584 0 0 0 .535-.8c.04-.064.08-.128.117-.194.058-.099.114-.2.169-.3l.098-.18c.081-.156.16-.315.234-.475l.06-.134c.057-.129.114-.259.167-.39l.055-.14c.056-.145.11-.29.16-.436l.027-.077c.6-1.791.743-3.697.44-5.54l-14.671-1.34a1.173 1.173 0 1 1 .213-2.336l13.783 1.258c-.097-.242-.2-.484-.315-.72zM9.098 10.452c.587 0 1.07.444 1.133 1.015l.006.124v1.253h1.253a1.14 1.14 0 0 1 .125 2.272l-.125.007h-1.253v1.253a1.14 1.14 0 0 1-2.271.124l-.007-.124v-1.253H6.706a1.14 1.14 0 0 1-.124-2.272l.124-.007h1.253v-1.253c0-.63.51-1.14 1.14-1.14zm61.804 0c.587 0 1.07.444 1.133 1.015l.006.124v1.253h1.253a1.14 1.14 0 0 1 .125 2.272l-.125.007h-1.253v1.253a1.14 1.14 0 0 1-2.271.124l-.007-.124v-1.253H68.51a1.14 1.14 0 0 1-.124-2.272l.124-.007h1.253v-1.253c0-.63.51-1.14 1.14-1.14zM40 2.5c.587 0 1.07.444 1.133 1.015l.006.124v1.253h1.253a1.14 1.14 0 0 1 .125 2.272l-.125.007H41.14v1.253a1.14 1.14 0 0 1-2.271.124l-.007-.124V7.17h-1.253a1.14 1.14 0 0 1-.124-2.272l.124-.007h1.253V3.64c0-.629.51-1.139 1.14-1.139z"/>
</svg>
