<svg xmlns="http://www.w3.org/2000/svg" width="80" height="80" viewBox="0 0 80 80">
    <path fill="#FEAA00" fill-rule="evenodd" d="M78.815 46.16c-1.491-4.653-4.24-8.65-8.002-11.663 2.934-1.607 4.909-3.74 5.72-6.257 1.206-3.736-.37-7.476-3.587-8.514-2.186-.705-4.064-.158-5.236.41-.62-1.147-1.823-2.687-4.01-3.392-1.64-.53-3.372-.276-4.875.713-1.384.912-2.454 2.367-3.012 4.097-.731 2.266-.516 4.831.586 7.524a24.401 24.401 0 0 0-9.3 1.422c-1.887-4.29-4.918-7.893-8.874-10.52a24.765 24.765 0 0 0-13.343-4.116c.394-.843.705-1.677.926-2.499a1.172 1.172 0 1 0-2.263-.61c-.326 1.209-.882 2.46-1.66 3.744l-.013.023a24.298 24.298 0 0 1-2.264 3.095 2.49 2.49 0 0 1-2.475.8c-5.331-1.315-8.822-3.757-9.828-6.877-.816-2.526.077-4.918 2.077-5.563 2.086-.673 3.77.386 4.234.726.335.245.77.315 1.164.189.394-.127.706-.438.835-.833.18-.549.925-2.392 3.012-3.065 2-.646 4.122.774 4.936 3.298l.034.107a1.172 1.172 0 0 0 2.244-.676 8.662 8.662 0 0 0-.046-.148c-1.205-3.736-4.67-5.85-7.888-4.811-2.186.705-3.39 2.246-4.009 3.392-1.173-.568-3.05-1.115-5.236-.41-3.217 1.039-4.794 4.778-3.588 8.514.78 2.42 2.636 4.486 5.386 6.07a24.724 24.724 0 0 0-8.785 11.206 24.648 24.648 0 0 0-.488 16.488 24.452 24.452 0 0 0 8.546 12.05 1.17 1.17 0 0 0 1.642-.227c.39-.516.29-1.25-.227-1.641a22.117 22.117 0 0 1-7.73-10.902C.28 37.587 4.27 26.842 12.914 21.52c.924.375 1.917.707 2.975.995-3.799 1.828-6.968 4.877-9.015 8.876-3.186 6.22-2.905 13.503.75 19.483 3.644 5.96 9.988 9.517 16.972 9.517 2.356 0 4.64-.401 6.81-1.192.155.662.336 1.32.546 1.974l.091.273a22.182 22.182 0 0 1-16.843-.8 1.172 1.172 0 0 0-.99 2.124 24.539 24.539 0 0 0 10.379 2.307 24.62 24.62 0 0 0 8.298-1.444c2.262 5.133 6.179 9.306 11.236 11.908a24.49 24.49 0 0 0 11.232 2.74c2.524 0 5.061-.393 7.534-1.186 6.26-2.005 11.363-6.327 14.37-12.17a24.443 24.443 0 0 0 1.555-18.765zM58.043 22.274c.396-1.225 1.13-2.24 2.07-2.859.456-.3 1.106-.599 1.887-.599.308 0 .636.047.98.158 2.088.673 2.834 2.516 3.013 3.066a1.3 1.3 0 0 0 .834.831c.394.127.828.057 1.163-.187.467-.341 2.15-1.4 4.236-.727 2 .645 2.893 3.037 2.077 5.563-1.006 3.12-4.497 5.562-9.828 6.876A2.492 2.492 0 0 1 62 33.597c-3.558-4.182-4.963-8.203-3.957-11.323zm-9.45 10.194a22.039 22.039 0 0 1 9.025-.954c.525.889 1.141 1.785 1.846 2.684-.055-.011-.109-.025-.163-.035a20.617 20.617 0 0 0-10.685.767 24.59 24.59 0 0 0-.631-2.259c.2-.07.403-.138.607-.203zM23.565 18.229c10.035-.48 19.115 5.783 22.22 15.405 2.863 8.874-.19 18.653-7.436 24.346a17.658 17.658 0 0 1-.467-2.671c4.483-4.029 6.935-9.894 6.617-15.852.017-.092.023-.186.017-.28a20.062 20.062 0 0 0-1.09-5.353 1.17 1.17 0 0 0-.167-.312c-2.74-7.421-9.328-12.352-17.284-12.896a20.688 20.688 0 0 0-4.272.148c.7-.85 1.322-1.695 1.862-2.535zm14.32 33.733c.212-2.184.839-4.329 1.873-6.338a18.126 18.126 0 0 1 2.347-3.497 17.674 17.674 0 0 1-4.22 9.835zm-5.688-6.533a24.343 24.343 0 0 0-1.218 11.428 17.468 17.468 0 0 1-6.384 1.19c-6.16 0-11.757-3.138-14.97-8.395-3.228-5.278-3.476-11.705-.665-17.193 3.252-6.352 9.71-9.993 16.855-9.505 6.827.467 12.512 4.593 15.043 10.846A24.812 24.812 0 0 0 32.2 45.43zm42.978 18.424a22.115 22.115 0 0 1-13.001 11.01 22.116 22.116 0 0 1-16.979-1.405 22.112 22.112 0 0 1-11.011-13c-2.84-8.866.22-18.622 7.45-24.305.223.87.379 1.749.466 2.628-1.79 1.606-3.277 3.543-4.425 5.77a19.785 19.785 0 0 0-1.259 15.191c.052.162.108.321.164.48.008.03.019.06.03.09C39.248 67.807 45.75 72.84 53.72 73.5c.588.048 1.172.073 1.752.073 7.494 0 14.14-4.025 17.621-10.79a19.79 19.79 0 0 0 1.259-15.193 21.052 21.052 0 0 0-1.297-3.153 1.172 1.172 0 0 0-2.087 1.067c.452.884.84 1.827 1.151 2.801a17.462 17.462 0 0 1-1.11 13.405c-3.309 6.43-9.86 10.053-17.096 9.454-6.74-.558-12.292-4.663-14.789-10.828a24.805 24.805 0 0 0 8.68-11.677 24.345 24.345 0 0 0 1.203-11.374c6.683-2.535 14.503-.796 19.288 4.38a1.169 1.169 0 0 0 1.656.064c.475-.44.504-1.18.065-1.656a19.233 19.233 0 0 0-4.415-3.545c.993-.265 1.928-.57 2.804-.913 3.885 2.794 6.709 6.673 8.179 11.26a22.114 22.114 0 0 1-1.407 16.98z"/>
</svg>
