<svg xmlns="http://www.w3.org/2000/svg" width="80" height="80" viewBox="0 0 80 80">
    <path fill="#FEAA00" fill-rule="evenodd" d="M32.422 13.75h15c.323 0 .629.133.849.364l.088.105 3.75 5 .01.015c.016.02.03.041.043.063l.02.033c.013.02.024.042.035.064l.018.036c.01.02.018.041.026.062l.017.041.008.029c.016.048.028.097.037.147l.003.015.004.016v.009l.002.005.627 3.996h5.791v-2.578a2.425 2.425 0 0 1 2.263-2.417l.159-.005h7.5a2.425 2.425 0 0 1 2.417 2.263l.005.159v2.578h1.328a3.677 3.677 0 0 1 3.667 3.477l.005.195v35a3.677 3.677 0 0 1-3.477 3.666l-.195.006h-65a3.677 3.677 0 0 1-3.667-3.478l-.005-.194v-35c0-1.548.963-2.874 2.32-3.413l.18-.066v-1.521a2.425 2.425 0 0 1 2.263-2.417L8.672 20h2.5a2.425 2.425 0 0 1 2.417 2.263l.005.159v1.328H15v-2.578a2.425 2.425 0 0 1 2.263-2.417l.159-.005h5a2.425 2.425 0 0 1 2.417 2.263l.005.159v2.578h2.041l.627-3.996v-.004l.001-.005.008-.036c.009-.05.021-.099.037-.147l.008-.028.008-.021.009-.02.025-.063.019-.036a1.18 1.18 0 0 1 .034-.064l.01-.017.01-.016.043-.063.005-.007.005-.008 3.75-5c.194-.259.484-.424.8-.461l.138-.008h15zM26.1 61.094H6.094v1.328a1.33 1.33 0 0 0 1.192 1.321l.136.007h19.475a4.937 4.937 0 0 1-.613-1.535l-.052-.28-.132-.841zm25.196.477l1.072-6.831c-2.907 3.677-7.406 6.041-12.446 6.041-4.908 0-9.302-2.241-12.214-5.754l-.232-.287 1.072 6.831a2.564 2.564 0 0 0 2.38 2.173l.166.006H48.75a2.565 2.565 0 0 0 2.516-2.016l.031-.163 1.072-6.831zm22.454-.477H53.743l-.132.84c-.089.569-.27 1.1-.529 1.58l-.135.236h19.475a1.33 1.33 0 0 0 1.321-1.193l.007-.135v-1.328zm-58.557-22.5h-9.1V58.75h19.64l-1.437-9.154a30.232 30.232 0 0 1-.096-8.686l.096-.662.26-1.654H22.15a3.678 3.678 0 0 1-3.48 2.5 3.678 3.678 0 0 1-3.478-2.5zm58.557 0H55.288l.26 1.654a30.232 30.232 0 0 1 .096 8.686l-.096.662-1.437 9.154H73.75V38.594zm-33.828-7.188c-7.453 0-13.516 6.063-13.516 13.516 0 7.452 6.063 13.515 13.516 13.515 7.452 0 13.516-6.063 13.516-13.515 0-7.453-6.064-13.516-13.516-13.516zm0 2.344c6.16 0 11.172 5.012 11.172 11.172 0 6.16-5.012 11.172-11.172 11.172-6.16 0-11.172-5.012-11.172-11.172 0-6.16 5.012-11.172 11.172-11.172zm0 2.344c-4.868 0-8.828 3.96-8.828 8.828 0 4.868 3.96 8.828 8.828 8.828 4.868 0 8.828-3.96 8.828-8.828 0-4.868-3.96-8.828-8.828-8.828zm0 3.906a4.927 4.927 0 0 1 4.922 4.922 4.927 4.927 0 0 1-4.922 4.922A4.927 4.927 0 0 1 35 44.922 4.927 4.927 0 0 1 39.922 40zm0 2.344a2.581 2.581 0 0 0-2.578 2.578 2.581 2.581 0 0 0 2.578 2.578 2.581 2.581 0 0 0 2.578-2.578 2.581 2.581 0 0 0-2.578-2.578zm-21.25-6.25a1.33 1.33 0 0 0-1.328 1.328 1.33 1.33 0 0 0 1.328 1.328A1.33 1.33 0 0 0 20 37.422a1.33 1.33 0 0 0-1.328-1.328zm53.75-10H53.327L54.92 36.25h18.83v-8.828a1.33 1.33 0 0 0-1.328-1.328zm-45.905 0H7.422A1.33 1.33 0 0 0 6.1 27.286l-.007.136v8.828h9.099a3.678 3.678 0 0 1 3.479-2.5c1.548 0 2.874.963 3.413 2.32l.066.18h2.772l1.594-10.156zm23.653-5H29.674l-2.198 14.01c2.907-3.678 7.405-6.042 12.446-6.042 4.908 0 9.302 2.242 12.213 5.754l.233.288-2.198-14.01zm18.502 0h-7.5c-.032 0-.06.02-.072.047l-.006.03v2.579h7.656v-2.578a.078.078 0 0 0-.078-.078zm-46.25 0h-5c-.032 0-.06.02-.072.047l-.006.03v2.579H22.5v-2.578a.078.078 0 0 0-.078-.078zm-11.25 1.25h-2.5c-.032 0-.06.02-.072.047l-.006.03v1.329h2.656v-1.328a.078.078 0 0 0-.078-.078zm35.664-6.25H33.008l-1.992 2.656h17.812l-1.992-2.656z"/>
</svg>
