<svg xmlns="http://www.w3.org/2000/svg" width="80" height="80" viewBox="0 0 80 80">
    <path fill="#FEAA00" fill-rule="evenodd" d="M56.95 0c8.065 0 14.628 6.562 14.628 14.628 0 4.997-2.52 9.417-6.354 12.057l-.283.19h6.906v5.865h6.414v24.478h-6.414v5.866H53.27v4.225h-5.677V80h-7.89V67.309h-5.524v-4.225H15.446v-9.19h-3.403L1.25 57.71V32.247l10.793 3.818h3.403v-9.19h6.637c-3.993-2.615-6.637-7.127-6.637-12.247C15.446 6.562 22.008 0 30.074 0c6.015 0 11.193 3.65 13.438 8.85C45.757 3.65 50.935 0 56.949 0zM45.21 67.309h-3.127v10.309h3.127v-10.31zm5.676-4.225H36.56v1.843h14.326v-1.843zm18.58-33.827H17.827V60.7h51.637V29.257zm-1.094 28.082v2.382H60.28V57.34h8.092zm7.507-22.216h-4.032v19.713h4.032V35.123zm-72.247.493v18.726l7.227-2.556V38.173l-7.227-2.557zm62.72.449v17.828h-23.82V36.065h23.82zm-50.906 2.382h-2.2V51.51h2.2V38.447zm48.524 0H44.914V51.51H63.97V38.447zm-31.593.458c2.28 0 4.136 1.873 4.135 4.176 0 .903-.258 1.52-.457 1.947l-.053.111-.02.043c-.768 1.62-4.455 4.741-5.402 5.527l-.088.072-.76.627-.758-.629-.186-.155c-1.033-.865-4.278-3.65-5.201-5.253l-.093-.172-.011-.025c-.208-.42-.521-1.053-.521-2.094 0-2.302 1.852-4.175 4.13-4.175.982 0 1.91.342 2.642.942.733-.6 1.66-.942 2.643-.942zm0 2.382a1.79 1.79 0 0 0-1.511.828l-.077.133-1.055 2.006-1.054-2.006a1.79 1.79 0 0 0-1.588-.96c-.98 0-1.748.787-1.748 1.792 0 .424.093.664.219.925l.055.114.013.025c.383.776 2.426 2.71 4.105 4.16 1.62-1.392 3.57-3.226 4.042-4.046l.052-.097.021-.045c.15-.316.28-.588.28-1.036 0-1.005-.77-1.793-1.754-1.793zm2.997-11.05v2.382h-9.037v-2.382h9.037zm-10.299 0v2.382h-2.102v-2.382h2.102zM56.95 2.382c-6.752 0-12.246 5.494-12.246 12.246 0 6.753 5.494 12.247 12.246 12.247 6.753 0 12.247-5.494 12.247-12.247 0-6.752-5.494-12.246-12.247-12.246zM43.512 20.407a14.716 14.716 0 0 1-5.108 6.24l-.338.228h10.892a14.719 14.719 0 0 1-5.446-6.468zM30.074 2.382c-6.752 0-12.246 5.494-12.246 12.246 0 6.753 5.494 12.247 12.246 12.247 6.753 0 12.247-5.494 12.247-12.247 0-6.752-5.494-12.246-12.247-12.246zm42.688 2.007a14.36 14.36 0 0 1 4.236 10.219c0 3.725-1.403 7.236-3.958 9.933l-.278.286-1.685-1.685a11.992 11.992 0 0 0 3.539-8.534c0-3.103-1.166-6.029-3.29-8.279l-.249-.256 1.685-1.684zM30.074 10.92a3.712 3.712 0 0 1 3.708 3.708 3.712 3.712 0 0 1-3.708 3.708 3.712 3.712 0 0 1-3.708-3.708 3.712 3.712 0 0 1 3.708-3.708zm26.875 0a3.712 3.712 0 0 1 3.708 3.708 3.712 3.712 0 0 1-3.708 3.708 3.712 3.712 0 0 1-3.708-3.708 3.712 3.712 0 0 1 3.708-3.708zm-26.875 2.383c-.73 0-1.326.594-1.326 1.325 0 .732.595 1.326 1.326 1.326.732 0 1.326-.594 1.326-1.326 0-.73-.595-1.325-1.326-1.325zm26.875 0c-.73 0-1.326.594-1.326 1.325 0 .732.595 1.326 1.326 1.326.731 0 1.326-.594 1.326-1.326 0-.73-.595-1.325-1.326-1.325z"/>
</svg>
