<svg xmlns="http://www.w3.org/2000/svg" width="80" height="80" viewBox="0 0 80 80">
    <path fill="#FEAA00" fill-rule="evenodd" d="M16.36 31.937c.486.492 5.337 5.492 10.25 13.698 4.61 7.7 10.09 19.741 10.268 33.667l.004.698h-2.456c0-13.66-5.397-25.542-9.924-33.104-4.839-8.083-9.712-13.053-9.908-13.251l-.005-.006 1.771-1.702zm46.071-.033l1.74 1.734-.02.02c-.338.344-5.167 5.326-9.93 13.298-4.437 7.423-9.71 19.016-9.884 32.364l-.005.68h-2.456c0-14.222 5.586-26.538 10.273-34.365 5.068-8.466 10.071-13.52 10.282-13.73zM40.707 28.48v41.657H38.25V28.48h2.457zm17.697 29.922v2.456h-2.44v-2.456h2.44zM8.316 54.134v2.456H5.877v-2.456h2.44zm63.006-6.876l1.37 1.37 1.358-1.357 1.737 1.737-1.364 1.364 1.364 1.364-1.737 1.737-1.37-1.371-1.358 1.357-1.737-1.736 1.364-1.365-1.364-1.364 1.737-1.736zM31.024 36.315v2.455h-2.439v-2.455h2.44zM14.005 17.387l-.367 6.635 5.79 4.152-6.53 2.111-2.112 6.53-4.151-5.789L0 31.393l3.82-5.907-1.94-6.218 6.218 1.94 5.907-3.821zm50.76 0l5.907 3.82 6.217-1.939-1.94 6.217 3.82 5.908-6.634-.368-4.152 5.79-2.111-6.53-6.53-2.112 5.79-4.152-.368-6.634zm2.718 4.683l.175 3.162-2.93 2.102 3.094 1 1.001 3.096 2.102-2.93 3.162.174-1.824-2.822.887-2.845-2.846.888-2.82-1.825zm-56.196 0l-2.822 1.825-2.845-.888.887 2.846-1.824 2.821 3.162-.175 2.102 2.93 1-3.094 3.096-1-2.931-2.103.175-3.162zM44.272 5.623c3.626 0 6.575 2.982 6.575 6.646 0 1.473-.438 2.494-.767 3.192l-.069.145-.037.078c-1.359 2.868-8.58 8.905-9.662 9.8l-.057.048-.783.645-.782-.647c-.825-.684-7.973-6.656-9.617-9.652l-.092-.176-.022-.045c-.358-.724-.848-1.716-.848-3.388 0-3.664 2.944-6.646 6.564-6.646 2.074 0 3.474.84 4.792 1.971 1.25-1.079 2.715-1.97 4.805-1.97zm10.15 17.734v2.456h-2.44v-2.456h2.44zM44.272 8.079c-1.44 0-2.412.62-3.714 1.84l-.233.222-.842.81-.85-.8c-1.371-1.29-2.322-2.072-3.958-2.072-2.304 0-4.108 1.84-4.108 4.19 0 1.014.246 1.59.524 2.159l.07.142.023.045c.848 1.719 5.16 5.712 8.291 8.368 2.99-2.527 7.246-6.45 8.208-8.209l.072-.141.038-.081c.294-.619.599-1.258.599-2.283 0-2.35-1.81-4.19-4.12-4.19zM14.094 9.21l1.37 1.37 1.358-1.357 1.737 1.737-1.364 1.364 1.364 1.364-1.737 1.736-1.37-1.37-1.358 1.357-1.737-1.737 1.364-1.364-1.364-1.364 1.737-1.737zM60.304 0l1.37 1.37L63.032.015l1.736 1.736-1.364 1.364 1.364 1.364-1.736 1.737-1.371-1.37-1.357 1.357-1.737-1.737L59.93 3.1l-1.364-1.364L60.304 0z"/>
</svg>
