<svg xmlns="http://www.w3.org/2000/svg" width="80" height="80" viewBox="0 0 80 80">
    <path fill="#FEAA00" fill-rule="evenodd" d="M29.072 30.409c2.7.708 6.733 2.37 10.624 6.26 3.89 3.89 5.552 7.925 6.26 10.624a4.932 4.932 0 0 1-2.372 5.55l-.198.104-22.212 10.97c-2.692 1.18-4.242.084-5.128-.777l-.083-.083-.478-.477-8.22 8.22a3.989 3.989 0 0 0-1.171 2.842c0 1.077.416 2.086 1.17 2.84a4.023 4.023 0 0 0 5.523.152l.16-.151 7.031-7.031a6.369 6.369 0 0 1 8.997 0 6.317 6.317 0 0 1 1.857 4.498c0 1.703-.64 3.321-1.857 4.498-.64.62-1.428.229-1.657 0a1.172 1.172 0 0 1 0-1.657 3.989 3.989 0 0 0 1.17-2.841 3.989 3.989 0 0 0-1.17-2.842 4.023 4.023 0 0 0-5.523-.151l-.16.151-7.03 7.032a6.343 6.343 0 0 1-4.5 1.86c-1.629 0-3.258-.62-4.498-1.86A6.317 6.317 0 0 1 3.75 73.64c0-1.603.584-3.112 1.651-4.283l.206-.215 8.22-8.22-.52-.52a4.53 4.53 0 0 1-.956-5.001l.097-.211 10.97-22.212a4.93 4.93 0 0 1 5.654-2.57zM16.94 51.389l-2.39 4.84a2.188 2.188 0 0 0 .296 2.388l.119.128L17.62 61.4c.622.622 1.55.808 2.357.486l.16-.071 4.84-2.39a22.782 22.782 0 0 0-3.519-4.518 22.771 22.771 0 0 0-4.518-3.519zm3.498-7.082l-2.456 4.973a25.075 25.075 0 0 1 5.134 3.97 25.199 25.199 0 0 1 3.671 4.635l.298.498 4.973-2.456c-1.07-2.506-2.656-4.821-4.727-6.892-2.071-2.071-4.386-3.658-6.893-4.728zM25.6 33.865l-.081.152-.689 1.394c2.808.823 6.472 2.536 10.03 6.094 1.944 1.945 3.519 4.114 4.68 6.447.288.58.052 1.283-.527 1.571-.168.084-1.114.421-1.571-.527-1.023-2.118-2.475-4.069-4.24-5.834-3.281-3.281-6.637-4.821-9.169-5.542l-.259-.071-2.298 4.653c2.737 1.186 5.259 2.923 7.51 5.175 2.112 2.111 3.77 4.46 4.947 7l.23.51 8.184-4.042a2.578 2.578 0 0 0 1.341-2.958c-.635-2.419-2.13-6.042-5.65-9.561-3.52-3.52-7.142-5.015-9.562-5.65a2.58 2.58 0 0 0-2.876 1.19zm34.774 8.62c1.2 0 2.185.936 2.265 2.116l.005.155v3.238c0 1.2-.935 2.185-2.115 2.266l-.155.005h-3.239c-1.2 0-2.185-.936-2.265-2.116l-.005-.155v-3.238c0-1.2.935-2.185 2.115-2.265l.155-.006h3.239zm-.073 2.344H57.21v3.092h3.092v-3.092zm13.897-12.276a3.915 3.915 0 0 1 1.967 2.288c.328 1 .247 2.068-.228 3.008a3.915 3.915 0 0 1-2.287 1.966c-1 .328-2.068.247-3.008-.227-6.595-3.334-14.56-2.933-20.786 1.046a3.914 3.914 0 0 1-2.97.528 3.913 3.913 0 0 1-2.347-1.541l-.126-.186-.053-.088c-.596-1.05-1.038-3.87 1.245-5.351 8.497-5.51 19.454-6.063 28.593-1.443zm-27.318 3.41c-1.053.682-.683 1.9-.479 2.231a1.6 1.6 0 0 0 2.193.465c6.922-4.423 15.775-4.869 23.106-1.163.786.398 1.795.103 2.146-.705.472-1.086-.324-1.954-.705-2.146-8.398-4.246-18.46-3.741-26.26 1.317zM41.524.198a3.914 3.914 0 0 1 2.287 1.967c4.621 9.14 4.069 20.096-1.442 28.593-.851 1.312-2.145 1.724-3.29 1.724-.907 0-1.72-.258-2.15-.532a3.918 3.918 0 0 1-1.727-2.473 3.916 3.916 0 0 1 .529-2.97c2.777-4.346 3.85-9.567 3.02-14.7a1.172 1.172 0 0 1 2.314-.373c.921 5.701-.271 11.503-3.36 16.335-.23.36-.513 1.537.465 2.192.646.433 1.55.575 2.232-.478 5.059-7.8 5.563-17.863 1.318-26.261-.193-.381-.911-1.31-2.146-.705-1.235.605-.898 1.765-.706 2.146.297.587.572 1.194.818 1.806a1.172 1.172 0 0 1-2.175.874c-.22-.55-.468-1.095-.734-1.622a3.915 3.915 0 0 1-.227-3.008A3.915 3.915 0 0 1 38.516.426 3.913 3.913 0 0 1 41.524.2zm17.345 23.415a1.172 1.172 0 1 1 0 2.344 1.172 1.172 0 0 1 0-2.344zm-27.26-9.894c1.2 0 2.185.935 2.265 2.115l.006.155v3.239c0 1.2-.936 2.185-2.116 2.265l-.155.005H28.37c-1.2 0-2.186-.935-2.266-2.115l-.005-.155V15.99c0-1.2.935-2.185 2.115-2.265l.156-.005h3.238zm26.753 3.111a1.172 1.172 0 1 1 0 2.344 1.172 1.172 0 0 1 0-2.344zm-26.826-.768h-3.092v3.092h3.092v-3.092zm20.044.26a1.172 1.172 0 1 1 0 2.344 1.172 1.172 0 0 1 0-2.344z"/>
</svg>
