<svg xmlns="http://www.w3.org/2000/svg" width="32" height="32" viewBox="0 0 32 32">
    <g fill="none" fill-rule="evenodd">
        <path fill="#FFF" d="M-131-476h1360v9486H-131z"/>
        <g>
            <path fill="#D53A97" d="M5.128 0h21.744c1.783 0 2.43.186 3.082.534.652.349 1.163.86 1.512 1.512.348.652.534 1.299.534 3.082v21.744c0 1.783-.186 2.43-.534 3.082a3.635 3.635 0 0 1-1.512 1.512c-.652.348-1.299.534-3.082.534H5.128c-1.783 0-2.43-.186-3.082-.534a3.635 3.635 0 0 1-1.512-1.512C.186 29.302 0 28.655 0 26.872V5.128c0-1.783.186-2.43.534-3.082A3.635 3.635 0 0 1 2.046.534C2.698.186 3.345 0 5.128 0z"/>
            <path fill="#FFF" d="M16 7.467c-2.317 0-2.608.01-3.518.051-.908.042-1.528.186-2.07.397a4.179 4.179 0 0 0-1.513.984 4.19 4.19 0 0 0-.985 1.511c-.211.543-.355 1.163-.396 2.071-.04.91-.051 1.202-.051 3.52 0 2.317.01 2.607.051 3.517.042.908.186 1.528.397 2.07.218.562.51 1.038.984 1.513.474.474.95.767 1.511.985.543.21 1.163.354 2.071.396.91.041 1.201.052 3.519.052 2.317 0 2.607-.01 3.518-.052.908-.042 1.529-.185 2.072-.396a4.175 4.175 0 0 0 1.51-.985 4.19 4.19 0 0 0 .985-1.512c.21-.543.354-1.163.397-2.071.04-.91.051-1.2.051-3.518 0-2.317-.01-2.608-.051-3.519-.043-.908-.187-1.528-.397-2.07a4.188 4.188 0 0 0-.985-1.512 4.17 4.17 0 0 0-1.51-.984c-.545-.211-1.165-.355-2.074-.397-.91-.041-1.2-.051-3.518-.051h.003zm-.765 1.537h.766c2.278 0 2.548.009 3.448.05.832.038 1.284.177 1.584.293.399.155.683.34.981.639.299.298.484.583.639.981.116.3.256.752.293 1.584.041.9.05 1.17.05 3.447s-.009 2.548-.05 3.447c-.038.832-.177 1.284-.293 1.584-.155.399-.34.682-.639.98a2.639 2.639 0 0 1-.98.639c-.301.117-.753.256-1.585.294-.9.04-1.17.05-3.448.05-2.279 0-2.549-.01-3.448-.05-.832-.039-1.284-.178-1.585-.294a2.643 2.643 0 0 1-.981-.639 2.645 2.645 0 0 1-.639-.98c-.117-.3-.256-.752-.294-1.584-.04-.9-.049-1.17-.049-3.449s.008-2.548.05-3.447c.037-.832.176-1.284.293-1.585.155-.398.34-.682.639-.98.298-.3.583-.484.981-.64.3-.117.753-.255 1.585-.294.787-.035 1.092-.046 2.682-.048v.002zm5.32 1.417a1.024 1.024 0 1 0 0 2.049 1.024 1.024 0 0 0 0-2.049zm-4.554 1.197a4.382 4.382 0 1 0 0 8.765 4.382 4.382 0 0 0 0-8.765zm0 1.538a2.844 2.844 0 1 1 0 5.689 2.844 2.844 0 0 1 0-5.69z"/>
        </g>
    </g>
</svg>
