<svg xmlns="http://www.w3.org/2000/svg" width="1360" height="8167" viewBox="0 0 1360 8167">
  <g fill="none" fill-rule="evenodd" stroke="#E6EAF2" stroke-linecap="round" stroke-linejoin="round" stroke-width="2">
    <path d="M1360 8162.06297C1287.33413 8172.80169 1208.39853 8160.18374 1150.18485 8140.97127 1036.44197 8103.46824 983.192949 8006.32903 926.382023 7904 911.180176 7876.61812 905.851537 7866.95145 910.396106 7875 888.646999 7838.39124 844.463994 7751.17696 886.461982 7687.91805 896.624835 7672.88767 920.426157 7657.71953 959.390714 7640.89908 995.772769 7626.13812 1040.6405 7611.85563 1080.27259 7598.88212 1105.62403 7591.40742 1129.51885 7583.79079 1149.20522 7576.87324 1218.74596 7551.67845 1285.18129 7527.72084 1352.00704 7535.48763M0 7308.24128C4.42188033 7324.17096 15.4440452 7334.07139 33.9224394 7338.55058 49.9110857 7342.46075 69.5978135 7341.94373 91.7652792 7341.00269 132.223932 7339.25561 159.663217 7344.44383 175.597803 7349.15504 191.705581 7353.96324 206.485894 7361.88459 220.900803 7369.61292 240.165065 7379.93736 258.394184 7389.74178 278.986911 7391.91388 287.230009 7392.75891 294.009491 7392.56991 301.762048 7391.20385 321.026309 7387.9017 335.565356 7380.36238 350.947332 7372.34904 377.115213 7358.81945 404.127025 7344.77285 456.581919 7352.9262 468.093624 7354.67327 479.536253 7357.35639 491.65663 7360.14151 530.297277 7369.04789 570.272396 7378.19529 614.973732 7359.76149 655.376323 7343.97181 680.818403 7314.97957 705.349478 7286.92936 716.793108 7273.8728 726.970924 7260.23655 741.751654 7248.4207 806.408314 7196.73358 879.849069 7229.7539 896.447388 7237.85825 908.31849 7243.6605 1007.83733 7333.74337 1018.98263 7341.56771 1032.42947 7351.13512 1101.46664 7414.29729 1128.8589 7420.76012 1200.84364 7437.74395 1296.45587 7383.00349 1319.65948 7371.07498 1337.77047 7361.74458 1351.5767 7348.63902 1360 7332.94134"/>
    <path d="M1360,7092.29151 C1360.12268,7091.81925 1328.03925,7047.62409 1313.95915,7052.35425 C1263.43518,7069.32758 1309.47461,7138.21937 1270.35981,7161.09643 C1231.24501,7183.9735 1170.62539,7181.05309 1165.77524,7181.05309 C1139.01232,7181.05309 1051.25346,7146.20682 1008.81782,7153.99259 L1008.75576,7153.99259 L1008.69371,7154.04152 C995.070044,7157.05279 989.86889,7171.59594 991.202032,7181.15193 C995.07735,7218.47231 1013.78407,7245.76643 1051.51038,7283.36637 C1059.07586,7290.89854 1095.83534,7330.43144 1108.73239,7341.63085 C1128.04893,7358.52731 1152.27568,7367 1180.7941,7367 C1213.85642,7367 1251.03826,7355.04777 1282.82949,7334.10268 C1315.59555,7306.522 1320.50075,7270.00236 1322.73867,7234.94244 C1322.91982,7232.20973 1324.12786,7194.70065 1333.03348,7186.04025 C1340.84517,7178.41723 1350.04805,7172.53247 1359.49815,7167.3576"/>
    <path d="M982.202014,6589.49138 C1044.48907,6612.43804 1093.96082,6648.0354 1118.3707,6687.55686 C1124.94685,6699.35193 1133.09288,6717.30674 1134.91456,6730.8585 C1141.84771,6778.1272 1115.32182,6817.94667 1062.3761,6840.38617 C1018.33376,6858.63981 961.678803,6862.21748 918.571786,6849.30121 C850.254858,6828.85575 808.687599,6776.89145 762.041425,6711.75483 C747.062971,6680.03847 744.02558,6649.58008 753.133193,6625.15156 C761.386354,6604.79438 777.397177,6589.24794 801.492166,6579.30276 C807.900127,6576.4487 815.053547,6574.1267 823.126444,6572.93487 C863.724596,6562.36057 924.730496,6569.19038 982.202014,6589.49138 Z" transform="matrix(-1 0 0 1 1884 0)"/>
    <path d="M930.722688,6649.08033 C962.829417,6660.91096 988.330322,6679.26393 1000.91273,6699.64004 C1004.3025,6705.72124 1008.50148,6714.97822 1009.4405,6721.96511 C1013.01428,6746.33547 999.341146,6766.86524 972.049537,6778.43439 C949.347297,6787.84544 920.143713,6789.68998 897.923601,6783.03073 C862.70869,6772.48965 841.282268,6745.69836 817.237848,6712.11581 C809.516995,6695.76378 807.95133,6680.06032 812.645976,6667.46568 C816.900183,6656.97011 825.153184,6648.95482 837.573281,6643.82738 C840.876354,6642.35591 844.563684,6641.15875 848.724971,6640.54428 C869.651854,6635.09248 901.098194,6638.61372 930.722688,6649.08033 Z" transform="matrix(-1 0 0 1 1820 0)"/>
    <path d="M0,5081.37391 C1.69900658,5081.04842 3.41771179,5080.76787 5.13970011,5080.48975 C8.3784827,5079.96508 11.4416192,5079.46835 14.0861599,5078.67164 C73.5645227,5060.73587 136.921873,5047.07272 202.385336,5038.0599 C245.070619,5032.17078 273.37098,5012.72539 286.503398,4980.25932 C294.642214,4960.13867 301.370937,4938.71849 307.070406,4914.7758 C315.918373,4877.63025 322.676643,4844.3116 327.729341,4812.91673 C332.583411,4782.73513 338.02844,4755.68817 355.527387,4730.3573 C378.249753,4697.47466 413.385538,4671.37865 469.459321,4645.74659 C499.501369,4632.02271 523.84723,4636.5018 543.846262,4659.43888 C557.139552,4674.68696 568.302107,4691.18961 579.095313,4707.15181 C582.051749,4711.52402 585.008184,4715.89501 588.002376,4720.23929 C593.806904,4728.64364 599.315954,4737.31154 604.641149,4745.69525 C614.119472,4760.61176 623.919539,4776.03473 635.494124,4790.08409 C655.455399,4814.31097 685.856947,4830.21245 718.04122,4847.05152 L729.86368,4853.24791 C764.919028,4871.63061 801.169427,4890.63636 818.415575,4923.81777 C827.778989,4941.80697 833.685294,4955.85512 837.565923,4969.36524 C850.775494,5015.30864 880.484307,5048.50827 928.374952,5070.86361 C947.658267,5079.86064 966.219298,5090.07946 984.164747,5099.96308 C998.703975,5107.96664 1013.73074,5116.24348 1028.93152,5123.74424 C1095.65569,5156.67668 1139.92507,5203.01115 1164.26273,5265.39647 C1170.52197,5281.42304 1177.81702,5297.57106 1184.87898,5313.19077 L1190.48324,5325.63821 C1195.43909,5336.71689 1201.28958,5347.83688 1206.94801,5358.58765 C1221.01119,5385.32855 1235.55534,5412.97426 1238.65295,5443.7036 C1242.18065,5478.71162 1246.17619,5518.39304 1231.96034,5556.645 C1207.32064,5623.00539 1157.14003,5651.33366 1069.49592,5648.53666 C1045.83951,5647.77152 1022.18474,5644.63203 999.312991,5641.59456 L987.377265,5640.02057 C956.466836,5636.02121 925.600729,5631.82025 894.726414,5627.61807 C865.231003,5623.60536 835.735592,5619.589 806.197501,5615.74996 C782.76106,5612.72221 759.815442,5615.52649 739.862375,5623.92113 C714.326388,5634.6549 699.370205,5652.94894 684.768598,5677.11875 C656.210513,5724.37502 628.48962,5772.72071 601.679789,5819.47539 C591.76153,5836.77112 581.23918,5853.35393 561.681727,5866.16328 C552.787797,5871.98075 542.976239,5875 533.095736,5875 C531.90561,5875 530.712202,5874.95628 529.518793,5874.86883 C518.819156,5874.07576 509.138922,5869.76793 501.528686,5862.41169 C497.858175,5858.87991 495.594475,5854.70446 493.596706,5851.02087 L492.807119,5849.57197 C467.203828,5803.11119 428.719277,5765.05841 375.152144,5733.2421 C339.904734,5712.31988 309.127271,5686.51535 279.370853,5661.56341 L270.105932,5653.80638 C257.287051,5643.10662 245.935717,5631.2883 234.957016,5619.85983 C226.040104,5610.57861 216.822788,5600.98283 207.001381,5592.19955 C172.907982,5561.73498 125.204473,5544.09434 79.0670058,5527.03058 L75.8676205,5525.85009 C58.5229794,5519.42659 41.3047378,5512.80876 24.0897793,5506.19337 L0.28398854,5497.07125"/>
    <path d="M819.140252,5667.31333 C851.246981,5679.14396 876.747886,5697.49692 889.330298,5717.87304 C892.720062,5723.95423 896.919047,5733.21121 897.85806,5740.1981 C901.431848,5764.56847 887.75871,5785.09824 860.467101,5796.66739 C837.764862,5806.07843 808.561278,5807.92298 786.341166,5801.26372 C751.126254,5790.72264 729.699832,5763.93136 705.655412,5730.34881 C697.93456,5713.99678 696.368894,5698.29331 701.06354,5685.69868 C705.317747,5675.20311 713.570749,5667.18781 725.990846,5662.06037 C729.293919,5660.5889 732.981249,5659.39174 737.142535,5658.77727 C758.069418,5653.32547 789.515758,5656.84672 819.140252,5667.31333 Z" transform="scale(1 -1) rotate(-10 -64704.16 0)"/>
    <path d="M540,5248 C535.102001,5248 529.890909,5246.57853 524,5242 C507.355291,5228.72754 498.816839,5212.0596 498,5191 C497.915574,5177.40543 497.906552,5163.12264 498,5148 C499.479504,5093.65202 530.589665,5049.07563 579,5031 C580.195294,5030.95918 580.988286,5030.93213 582,5031 C582.187298,5031 582.679535,5030.98222 583,5031 C610.047294,5034.53138 631.433023,5046.22768 645,5065 C657.453396,5081.87157 662.380776,5103.76558 659,5127 C651.525503,5175.21363 602.88931,5231.38916 557,5244 L554,5245 C549.383883,5246.62561 544.843476,5248 540,5248 Z" transform="matrix(-1 0 0 1 1158 0)"/>
    <path d="M625.791962,1817 C707.092893,1835.20586 757.190822,1886.05932 774.696154,1968.1524 C780.612103,1995.92657 780.158364,2117.37993 799.721221,2159.58177 C838.85368,2244 1000.89918,2513 1142.93906,2513 C1284.97894,2513 1312.95371,2530.6899 1330.94938,2547.4056 C1367.3638,2581.19413 1369.26852,2674.13925 1338.21775,2722.01081 C1317.37208,2754.15591 1284.86623,2777.30315 1256.0335,2796.47769 C1227.20254,2815.64275 1102.05065,2852.46317 1077.23624,2882.27584 C1071.25479,2889.46273 1065.26803,2896.65279 1059.18038,2903.7591 C1043.34433,2922.2415 977.344581,3021 868.588037,3021 C759.831493,3021 764.179456,2904.27208 684.81043,2904 C631.897746,2903.81862 611.892129,2902.42567 624.793579,2899.82116" transform="matrix(-1 0 0 1 1981 0)"/>
    <path d="M402,3305.83883 C430.004971,3321.83484 430.004971,3353.82685 511.513944,3353.10014 C527.619201,3352.95655 544.870908,3350.36452 561.730803,3344.91449 C591.886913,3334.8957 726.05752,3263.84932 734.594961,3187.1546 C735.869692,3175.70326 767.064798,3016 847.595576,3016 C963.099594,3016 1045.11415,3127.88326 1056.36636,3190.87535 C1068.80356,3260.50128 997.451914,3415.59525 980.205758,3440.90989 C960.099061,3470.42336 998.105808,3503.08805 1020.70323,3459.51365 C1045.49615,3411.70568 1089.82004,3391.20491 1152.72497,3402.21407 C1184.49499,3407.85254 1215.10374,3420.9035 1244.24924,3440.90989 C1259.89777,3452.12524 1276.80447,3471.4306 1314.16191,3515.78642 C1351.51934,3560.14225 1364.70416,3717.11514 1358.55017,3753.45307 C1351.08893,3799.17001 1318.18178,3832.84513 1278.36519,3843.49527 C1186.13918,3868.1639 1031.77413,3757.47731 1010.27196,3750.47647 C987.333954,3742.4577 962.584597,3744.68592 938.996415,3747.49987 C901.506384,3752.38277 880.170145,3768.66523 874.200467,3797.35795 C870.764029,3812.19643 845.042291,3876.52905 767.064798,3939.6806 C689.087306,4002.83215 609.036749,3917.68609 635.265411,3860.97958 C652.305829,3824.13811 718.056099,3811.71255 718.788266,3706.18984 C719.520434,3600.66713 630.354197,3591.29318 571.279413,3587.13223 C534.215205,3584.999 427.004438,3631.75747 402,3695.7415" transform="matrix(-1 0 0 1 1762 0)"/>
    <path d="M209,2094.55118 C184.061128,2104.94307 156.380567,2112.01637 126.098078,2115.73606 C117.468354,2116.28317 108.672631,2117 99.5366754,2117 C72.2521393,2117 43.4626709,2110.20087 23.1726437,2082.87367 C0.882356236,2050.55742 -5.5988776,2017.28619 4.91167962,1984.2865 C26.4394915,1912.95408 80.5408951,1867.64215 165.940181,1849.04512 C166.589546,1848.98816 170.988236,1848.98184 172.580532,1849.04512 C174.939602,1849.75935 177.729581,1850.36872 180.88097,1851.573 C186.415959,1852.25624 203.480935,1853.46739 209,1854.10088" transform="rotate(180 104.5 1983)"/>
    <path d="M-21.716101,2577 C-27.4395628,2552.55403 -27.4706974,2527.88088 -21.5519789,2503.33333 C-2.05637493,2417.99973 83.6843918,2356.66693 107.738419,2347.59478 C131.792447,2338.52263 142.316084,2341.54668 164.866735,2349.1068 C187.417386,2356.66693 232.816074,2390.25482 250.559208,2436.80424 C269.003271,2484.20487 262.718261,2537.66184 234.022064,2577" transform="matrix(0 -1 -1 0 2577 2577)"/>
    <path d="M521,0 C519.420627,5.819986 516.057634,11.540007 511,17 M494,32 C487.361951,36.4750151 480.634008,40.8494883 474,45 M453,56 C446.360776,60.1641221 439.630403,64.2003817 433,68 M409,79 C401.710755,83.0330257 394.362725,87.0226647 387,91 M364,101 C356.628937,104.971125 349.279528,108.959705 342,113 M320,123 C313.28447,126.856764 308.57344,131.567554 306,137 M305,154 C305.774561,159.453803 307.083531,165.013647 309,171 M316,188 C318.360194,193.36741 320.905825,198.678371 324,205 M331,221 C331.66248,224.489571 332,228.056143 332,232 C332,234.030675 331.840659,236.520411 332,239 M326,257 C323.248191,262.388415 319.680763,267.908537 315,274 M304,289 C300.055205,295.128617 297.111328,300.690322 295,306 M291,322 C291.038085,323.166667 291,324.326291 291,326 C291,330.157864 291.673186,334.706573 293,339 M302,355 C306.129687,360.061964 311.515132,364.771397 318,369 M338,381 C343.664567,384.163855 349.415748,387.274168 355,391 L360,393 M381,405 C382.203608,405.716757 383.399069,406.436021 385,407 C390.447607,410.734686 396.246715,414.352306 402,418 M422,429 L442,442 M462,454 L471,460 C474.668372,462.243471 478.326162,464.627831 482,467 M502,479 L505,481 C510.714125,484.174247 517.131134,486.458863 525,488 M553,490 C562.716636,490.549203 572.519367,490.777882 582,491 M610,492 C612.815563,492.115183 615.629116,492.249913 618,493 C625.70825,492.81815 632.627036,494.026527 639,496 M663,506 C665.785244,507.872734 668.521418,509.978831 671,512 C674.077185,514.845606 677.033195,517.425428 680,520 M697,534 C702.647756,538.674237 708.319826,543.340321 714,548 M731,562 L748,576 M765,591 L766,592 C769.740452,594.269138 773.705955,597.003858 777,600 C778.794485,601.758445 780.488002,603.413988 782,605 M791,622 C790.899175,627.213231 787.721662,632.615574 781,639 M763,653 C757.095294,657.290415 750.367592,661.662599 743,666 M721,677 L719,678 C711.621437,681.691881 705.059589,685.30571 699,689 M680,702 C673.836167,706.446678 668.116196,711.157696 663,716 M649,731 C645.236601,735.778445 641.87494,740.826601 639,746 M630,763 C626.660526,767.53631 622.84746,772.303637 618,778 M606,795 C602.149948,799.738258 598.446467,804.784017 595,810 M586,827 C583.320892,832.271183 580.705029,837.831657 578,844 M571,861 C568.516125,866.852714 565.687612,872.628937 563,878 M1353,898 L1360,897 M554,893 C552.514741,895.879932 551.085765,898.767064 550,902 C548.527993,904.340933 547.600357,907.144667 547,910 M1299,911 C1305.36012,909.314426 1312.07313,907.763209 1319,907 C1321.30339,905.919959 1323.6487,905.457481 1326,905 M1250,929 C1257.08093,925.367035 1264.81681,922.002818 1273,919 M547,928 C548.243789,933.790192 550.599157,939.50905 554,945 M1212,957 C1218.30746,952.319706 1224.64046,947.653659 1231,943 M780,962 C790.376377,961.436995 799.861513,961.110258 809,961 M838,961 C848.042956,961.77735 857.79836,963.123639 867,965 M724,969 C734.337546,967.429066 743.495415,966.121107 752,965 M567,960 C572.660093,964.977691 579.054897,969.015151 586,972 M668,977 C675.222135,975.987477 682.440277,974.949906 690,974 L696,973 M612,979 C621.132308,979.98694 630.553484,980.249874 640,980 M1175,984 C1180.99184,979.330466 1186.98858,974.661546 1193,970 M894,972 C902.340045,975.263525 910.076245,979.298125 917,984 M1139,1011 C1142.97339,1007.12927 1147.54504,1003.27023 1153,999 L1156,997 M935,997 C939.715552,1001.49871 943.970098,1006.40603 948,1012 M1118,1043 C1119.80461,1037.16604 1122.49583,1031.44636 1126,1026 M958,1029 C960.318095,1033.25485 962.558504,1037.53031 965,1042 L967,1046 M1102,1076 C1106.09758,1071.68623 1109.27513,1066.92066 1112,1061 M977,1062 L978,1064 C981.192029,1068.34479 985.232514,1072.88441 990,1077 M1060,1098 C1068.63708,1096.47147 1076.93625,1093.70463 1084,1090 M1009,1090 C1009.64986,1090.35982 1010.30766,1090.71779 1011,1091 C1017.51472,1094.54189 1024.92746,1096.87116 1033,1098"/>
  </g>
</svg>
