<svg xmlns="http://www.w3.org/2000/svg" width="32" height="32" viewBox="0 0 32 32">
    <g fill="none" fill-rule="evenodd">
        <path stroke="#E6EAF2" stroke-linecap="round" stroke-linejoin="round" stroke-width="2" d="M-74-32c-1.58 5.82-4.942 11.54-10 17m-17 15a702.821 702.821 0 0 1-20 13m-21 11c-6.64 4.164-13.37 8.2-20 12m-24 11a2489.811 2489.811 0 0 1-22 12m-23 10c-7.371 3.971-14.72 7.96-22 12m-22 10c-6.716 3.857-11.427 8.568-14 14m-1 17c.775 5.454 2.084 11.014 4 17m7 17c2.36 5.367 4.906 10.678 8 17m7 16c.662 3.49 1 7.056 1 11 0 2.03-.16 4.52 0 7m-6 18c-2.752 5.388-6.32 10.909-11 17m-11 15c-3.945 6.129-6.889 11.69-9 17m-4 16c.038 1.167 0 2.326 0 4 0 4.158.673 8.707 2 13m9 16c4.13 5.062 9.515 9.771 16 14m20 12c5.665 3.164 11.416 6.274 17 10l5 2m21 12c1.204.717 2.4 1.436 4 2 5.448 3.735 11.247 7.352 17 11m20 11l20 13m20 12l9 6c3.668 2.243 7.326 4.628 11 7m20 12l3 2c5.714 3.174 12.131 5.459 20 7m28 2c9.717.55 19.52.778 29 1m28 1c2.816.115 5.63.25 8 1 7.708-.182 14.627 1.027 21 3m24 10c2.785 1.873 5.521 3.979 8 6 3.077 2.846 6.033 5.425 9 8m17 14a5076.5 5076.5 0 0 0 17 14m17 14l17 14m17 15l1 1c3.74 2.27 7.706 5.004 11 8 1.794 1.758 3.488 3.414 5 5m9 17c-.1 5.213-3.278 10.616-10 17m-18 14c-5.905 4.29-12.632 8.663-20 13m-22 11l-2 1c-7.379 3.692-13.94 7.306-20 11m-19 13c-6.164 4.447-11.884 9.158-17 14m-14 15a113.219 113.219 0 0 0-10 15m-9 17c-3.34 4.536-7.153 9.304-12 15m-12 17a189.812 189.812 0 0 0-11 15m-9 17c-2.68 5.271-5.295 10.832-8 17m-7 17c-2.484 5.853-5.312 11.629-8 17m790 20l7-1m-806-4c-1.485 2.88-2.914 5.767-4 9-1.472 2.34-2.4 5.145-3 8m752 1c6.36-1.686 13.073-3.237 20-4 2.303-1.08 4.649-1.543 7-2m-76 24c7.08-3.633 14.817-6.997 23-10m-726 9c1.244 5.79 3.6 11.51 7 17m658 12c6.307-4.68 12.64-9.346 19-14m-451 19c10.376-.563 19.862-.89 29-1m29 0c10.043.777 19.798 2.124 29 4m-143 4c10.338-1.57 19.495-2.879 28-4m-185-5a71.438 71.438 0 0 0 19 12m82 5c7.222-1.013 14.44-2.05 22-3l6-1m-84 6c9.132.987 18.553 1.25 28 1m535 4c5.992-4.67 11.989-9.338 18-14m-299 2c8.34 3.264 16.076 7.298 23 12m222 27c3.973-3.87 8.545-7.73 14-12l3-2m-221 0c4.716 4.499 8.97 9.406 13 15m170 31c1.805-5.834 4.496-11.554 8-17m-168 3c2.318 4.255 4.559 8.53 7 13l2 4m135 30c4.098-4.314 7.275-9.08 10-15m-135 1l1 2a79.586 79.586 0 0 0 12 13m70 21c8.637-1.529 16.936-4.295 24-8m-75 0c.65.36 1.308.718 2 1 6.515 3.542 13.927 5.871 22 7"/>
        <path d="M-595-32H765v624H-595z"/>
        <path fill="#666E80" d="M17.37 18.643l.87-.87c.407-.407.983-.522 1.457-.282.28.112.577.205.918.29.266.066.482.112.974.21l.03.008c.578.144 1.042.684 1.042 1.316v2.01c0 .375-.135.678-.397.94-.272.272-.582.396-1.007.396l-.068-.004a13.244 13.244 0 0 1-5.77-2.036c-1.568-.954-2.924-2.328-4.032-4.027a13.263 13.263 0 0 1-2.044-5.783l-.004-.068c0-.297.062-.48.205-.767l.048-.097.077-.076c.274-.274.62-.464 1.007-.464h2.009c.66 0 1.195.496 1.333 1.203.059.59.238 1.257.482 1.805l.037.11c.11.44.019.9-.226 1.267l-.044.067-.058.054-.852.785c-.005.005-.01.031-.022.01a10.304 10.304 0 0 0 4.001 4.012c.01.005.015.009.016.012l.018-.021z"/>
    </g>
</svg>
