<svg xmlns="http://www.w3.org/2000/svg" xmlns:xlink="http://www.w3.org/1999/xlink" width="16" height="16" viewBox="0 0 16 16">
    <defs>
        <path id="a" d="M13.8 8.467l-4 4a.605.605 0 0 1-.467.2.605.605 0 0 1-.466-.2.644.644 0 0 1 0-.934l2.866-2.866H2.667C2.267 8.667 2 8.4 2 8s.267-.667.667-.667h9.066L8.867 4.467a.644.644 0 0 1 0-.934.644.644 0 0 1 .933 0l4 4c.067.067.133.134.133.2.067.134.067.334 0 .534 0 .066-.066.133-.133.2z"/>
    </defs>
    <use fill="#292C33" fill-rule="evenodd" xlink:href="#a"/>
</svg>
