<svg xmlns="http://www.w3.org/2000/svg" width="32" height="32" viewBox="0 0 32 32">
    <g fill="none" fill-rule="evenodd">
        <path fill="#FFF" d="M-131-476h1360v9486H-131z"/>
        <g>
            <rect width="32" height="32" fill="#8555C8" rx="4"/>
            <path fill="#FFF" fill-rule="nonzero" d="M22.4 9.694c1.046 1.056 1.533 2.617 1.533 4.906v.512l-.001.198v.183l.001.507c0 2.289-.487 3.85-1.533 4.905-1.75 1.572-5.027 1.626-6.275 1.628H16c-.347 0-.909 0-1.572-.046l-2.161 2.418V22.17c-.982-.235-1.952-.622-2.667-1.263C8.554 19.849 8.067 18.289 8.067 16v-.513-.887c0-2.29.487-3.85 1.533-4.906 1.686-1.516 4.794-1.62 6.133-1.627h.534c1.338.007 4.446.111 6.132 1.627zm-10.091.706c-.299 0-.69.147-.955.345-.399.297-.815.702-.927 1.206a1.2 1.2 0 0 0-.027.206c-.021.525.185 1.058.408 1.51.524 1.063 1.217 2.093 1.972 3.012.241.294.504.567.776.832l.268.268c.18.176.368.347.564.508.919.754 1.948 1.448 3.012 1.972.447.22.973.423 1.493.408.075-.003.149-.011.223-.027.504-.111.909-.529 1.206-.927.197-.265.345-.656.345-.955 0-.176-.081-.345-.257-.493-.518-.437-.757-.569-1.473-.998-.298-.18-.753-.334-.991-.334-.163 0-.358.125-.478.244-.306.307-.406.69-.943.69-.525 0-1.442-.535-2.1-1.225l-.145-.145c-.62-.642-1.08-1.468-1.08-1.955 0-.537.376-.644.682-.95.12-.12.251-.315.251-.478 0-.238-.154-.686-.333-.984-.43-.716-.561-.956-.999-1.474-.147-.175-.316-.256-.492-.256zM16 9.933a.467.467 0 0 0 0 .934c2.316 0 4.2 1.884 4.2 4.2v.466a.467.467 0 0 0 .933 0v-.466A5.14 5.14 0 0 0 16 9.933zm.2 1.408a.467.467 0 1 0-.049.932 2.797 2.797 0 0 1 2.649 2.794.467.467 0 0 0 .933 0A3.73 3.73 0 0 0 16.2 11.34zm.384 1.473a.467.467 0 0 0-.234.904c.489.126.871.51 1 1a.467.467 0 1 0 .902-.236 2.33 2.33 0 0 0-1.668-1.668z"/>
        </g>
    </g>
</svg>
